<svg width="16" height="16" viewBox="0 0 16 16" fill="none" xmlns="http://www.w3.org/2000/svg">
<g clip-path="url(#clip0)">
<path d="M14.9273 12.0158C14.2119 13.2414 13.2415 14.2118 12.0159 14.9271C10.79 15.6425 9.4518 16.0001 8.00024 16.0001C6.54882 16.0001 5.21021 15.6425 3.98456 14.9271C2.75883 14.2119 1.78844 13.2415 1.07303 12.0158C0.357592 10.79 0 9.45135 0 8.00004C0 6.54866 0.357702 5.21027 1.07292 3.9844C1.78829 2.75879 2.75869 1.78839 3.98441 1.07295C5.21021 0.357654 6.54871 2.47955e-05 8.00009 2.47955e-05C9.45148 2.47955e-05 10.7901 0.357654 12.0158 1.07295C13.2415 1.78813 14.2119 2.75879 14.9272 3.9844C15.6424 5.21016 16 6.54873 16 8.00004C16 9.4515 15.6424 10.7901 14.9273 12.0158ZM13.1876 7.54164L12.2396 6.59372C12.1078 6.4619 11.9514 6.39597 11.7709 6.39597C11.5904 6.39597 11.4342 6.4619 11.3022 6.59372L9.33367 8.5625V3.33343C9.33367 3.1529 9.26752 2.9966 9.13562 2.8647C9.0038 2.73263 8.84746 2.6667 8.6669 2.6667H7.33347C7.15294 2.6667 6.99667 2.73263 6.86474 2.8647C6.73278 2.99656 6.66677 3.15286 6.66677 3.33343V8.5625L4.69806 6.59372C4.57288 6.46876 4.41684 6.40644 4.22923 6.40644C4.04169 6.40644 3.88543 6.46876 3.76039 6.59372L2.81247 7.54164C2.68762 7.66675 2.62504 7.82309 2.62504 8.01055C2.62504 8.19798 2.6874 8.35421 2.81247 8.47928L6.58344 12.2501L7.53137 13.1981C7.6564 13.323 7.81267 13.3856 8.00009 13.3856C8.1877 13.3856 8.34389 13.323 8.46889 13.1981L9.41678 12.2501L13.1875 8.47928C13.3128 8.35424 13.3751 8.19798 13.3751 8.01055C13.3751 7.82309 13.3128 7.66675 13.1876 7.54164Z" fill="#499C6C" fill-opacity="0.6"/>
</g>
<defs>
<clipPath id="clip0">
<rect width="16" height="16" fill="white"/>
</clipPath>
</defs>
</svg>
