<svg width="14" height="15" viewBox="0 0 14 15" fill="none" xmlns="http://www.w3.org/2000/svg">
<path d="M0.0668945 13.3667H13.9336V14.4334H0.0668945V13.3667Z" fill="black"/>
<path fill-rule="evenodd" clip-rule="evenodd" d="M0.941455 12.8237C0.917994 12.8302 0.893999 12.8334 0.870538 12.8334C0.800687 12.8334 0.759352 12.8334 0.681247 12.7549C0.595671 12.669 0.587402 12.5879 0.612996 12.4956L1.36962 9.7495C1.37016 9.74737 1.37149 9.74577 1.37282 9.74417C1.37416 9.74257 1.37549 9.74096 1.37602 9.73883C1.38882 9.69987 1.40748 9.66252 1.43841 9.63157L1.44001 9.6305L10.8464 0.217258C11.0906 -0.0276782 11.5183 -0.0282119 11.7625 0.217258L13.2107 1.6666C13.4634 1.91901 13.4634 2.3299 13.2107 2.58284L3.80321 11.9982C3.77228 12.0292 3.73495 12.0479 3.69603 12.0601C3.69404 12.0609 3.69251 12.0621 3.69101 12.0633C3.6893 12.0646 3.68764 12.066 3.68537 12.0665L0.941455 12.8237ZM11.3855 0.593468C11.3274 0.535836 11.282 0.535302 11.2239 0.593468L10.7336 1.10002L10.2002 1.63336L6.10219 5.72692L2.00415 9.82048L3.61445 11.432L7.70734 7.3327L11.8002 3.23336L12.3336 2.70002L12.8342 2.20503C12.8636 2.17568 12.8678 2.14206 12.8678 2.12392C12.8678 2.10631 12.8636 2.07269 12.8342 2.04334L11.3855 0.593468Z" fill="black"/>
<path d="M12.3336 2.70002L10.7336 1.10002L10.2002 1.63336L11.8002 3.23336L12.3336 2.70002Z" fill="black"/>
</svg>
