<svg width="64" height="64" viewBox="0 0 64 64" fill="none" xmlns="http://www.w3.org/2000/svg">
<rect x="0.5" y="0.5" width="63" height="63" rx="3.5" fill="#FDFDFD"/>
<path fill-rule="evenodd" clip-rule="evenodd" d="M44.8003 23.4666H39.033C38.6466 23.4666 38.2948 23.244 38.1293 22.8947L36.6497 19.7718C36.4843 19.4226 36.1325 19.1999 35.746 19.1999H28.2545C27.8681 19.1999 27.5162 19.4226 27.3508 19.7718L25.8712 22.8947C25.7057 23.244 25.3539 23.4666 24.9675 23.4666H19.2003C16.5862 23.4666 14.9336 24.9081 14.9336 27.4289V40.2284C14.9336 42.7492 17.0603 44.7999 19.6743 44.7999H30.4254H33.5751H44.3262C46.9402 44.7999 49.0669 42.7491 49.0669 40.2284V27.4279C49.0669 24.9081 47.4143 23.4666 44.8003 23.4666ZM24.4151 33.8277C24.4151 29.7954 27.818 26.5138 32.0003 26.5138C36.1825 26.5138 39.5854 29.7954 39.5854 33.8277C39.5854 37.86 36.1825 41.1416 32.0003 41.1416C27.818 41.1416 24.4151 37.86 24.4151 33.8277Z" fill="#AADCFB"/>
<rect x="0.5" y="0.5" width="63" height="63" rx="3.5" stroke="#AADCFB" stroke-dasharray="2 1"/>
</svg>
