<svg width="14" height="17" viewBox="0 0 14 17" fill="none" xmlns="http://www.w3.org/2000/svg">
<path d="M10.25 0.5H9.99999H4.75C4.19999 0.5 3.75 0.949987 3.75 1.5V3H1.75C1.19999 3 0.75 3.44999 0.75 4V15.5C0.75 16.05 1.19999 16.5 1.75 16.5H9.25C9.79999 16.5 10.25 16.05 10.25 15.5V14H12.25C12.8 14 13.25 13.55 13.25 13V4.25001V4.00003L10.25 0.5ZM10.25 1.25001L12.6 4H10.75C10.5 4 10.25 3.75001 10.25 3.5V1.25001ZM9.75 15.5C9.75 15.75 9.55 16 9.25 16H1.75C1.50001 16 1.25 15.8 1.25 15.5V4C1.25 3.75001 1.45 3.5 1.75 3.5H6.75V6C6.75 6.55001 7.20001 7 7.75 7H9.75V15.5ZM7.24997 6V3.75001L9.59999 6.5H7.74997C7.49999 6.5 7.24997 6.25001 7.24997 6ZM12.75 13C12.75 13.25 12.55 13.5 12.25 13.5H10.25V6.74999V6.5L7.24997 3H6.99999H4.24997V1.5C4.24997 1.25001 4.44997 1 4.74997 1H9.74997V3.5C9.74997 4.05001 10.2 4.5 10.75 4.5H12.75L12.75 13Z" fill="black"/>
</svg>
