<svg width="16" height="19" viewBox="0 0 16 19" fill="none" xmlns="http://www.w3.org/2000/svg">
<path d="M14.5927 15.9025C14.7008 16.0334 14.7152 16.2513 14.5927 16.3739L12.7071 18.2595C12.5893 18.3773 12.3582 18.382 12.2357 18.2595C12.1132 18.137 12.1179 17.9059 12.2357 17.7881L13.5522 16.4716L9.6089 16.4698C9.44081 16.4527 9.30964 16.3107 9.30964 16.1382C9.30964 15.9541 9.45888 15.8048 9.64298 15.8048L13.5525 15.805L12.2357 14.4882C12.1276 14.3573 12.1132 14.1394 12.2357 14.0168C12.3659 13.8867 12.5759 13.8877 12.706 14.0179L14.5927 15.9025Z" fill="black"/>
<path d="M1.40728 15.9023C1.29917 16.0332 1.28476 16.2512 1.40728 16.3737L3.29289 18.2593C3.41074 18.3771 3.64178 18.3818 3.7643 18.2593C3.88682 18.1368 3.88215 17.9057 3.7643 17.7879L2.44782 16.4714L6.3911 16.4696C6.55919 16.4525 6.69036 16.3106 6.69036 16.138C6.69036 15.9539 6.54112 15.8046 6.35702 15.8046L2.44751 15.8048L3.7643 14.4881C3.8724 14.3571 3.88682 14.1392 3.7643 14.0167C3.63412 13.8865 3.42415 13.8876 3.29397 14.0177L1.40728 15.9023Z" fill="black"/>
<path fill-rule="evenodd" clip-rule="evenodd" d="M14 2.96658H11.6328C11.2464 2.96658 10.8945 2.74395 10.7291 2.39474L10.3234 1.53843C10.1579 1.18922 9.80609 0.966583 9.41967 0.966583H6.58033C6.19391 0.966583 5.84207 1.18922 5.67663 1.53843L5.27093 2.39474C5.10548 2.74395 4.75364 2.96658 4.36722 2.96658H2C0.774667 2.96658 0 3.64229 0 4.82389V10.8237C0 12.0053 0.996889 12.9666 2.22222 12.9666H7.26178H8.73822H13.7778C15.0031 12.9666 16 12.0053 16 10.8237V4.82346C16 3.64229 15.2253 2.96658 14 2.96658ZM4.44444 7.82335C4.44444 5.93322 6.03956 4.39497 8 4.39497C9.96044 4.39497 11.5556 5.93322 11.5556 7.82335C11.5556 9.71349 9.96044 11.2517 8 11.2517C6.03956 11.2517 4.44444 9.71349 4.44444 7.82335Z" fill="#424242"/>
<path fill-rule="evenodd" clip-rule="evenodd" d="M9.66699 7.6332H8.00027V5.96665C8.00027 5.67891 7.58366 5.13332 7.58366 5.13332C7.58366 5.13332 7.16699 5.67891 7.16699 5.96665V8.04999C7.16699 8.28011 7.35354 8.46665 7.58366 8.46665H9.66699C9.9549 8.46665 10.5003 8.04999 10.5003 8.04999C10.5003 8.04999 9.9549 7.6332 9.66699 7.6332Z" fill="black"/>
<path fill-rule="evenodd" clip-rule="evenodd" d="M9.66699 7.6332H8.00027V5.96665C8.00027 5.67891 7.58366 5.13332 7.58366 5.13332C7.58366 5.13332 7.16699 5.67891 7.16699 5.96665V8.04999C7.16699 8.28011 7.35354 8.46665 7.58366 8.46665H9.66699C9.9549 8.46665 10.5003 8.04999 10.5003 8.04999C10.5003 8.04999 9.9549 7.6332 9.66699 7.6332Z" fill="black"/>
</svg>
