<svg width="17" height="16" viewBox="0 0 17 16" fill="none" xmlns="http://www.w3.org/2000/svg">
<path d="M15.4273 3.9843C14.7119 2.75869 13.7415 1.78829 12.5159 1.07292C11.29 0.357592 9.9518 0 8.50024 0C7.04882 0 5.71021 0.357592 4.48456 1.07292C3.25883 1.78818 2.28844 2.75858 1.57303 3.9843C0.857592 5.2101 0.5 6.54871 0.5 8.00002C0.5 9.4514 0.857702 10.7898 1.57292 12.0157C2.28829 13.2413 3.25869 14.2117 4.48441 14.9271C5.71021 15.6424 7.04871 16 8.50009 16C9.95148 16 11.2901 15.6424 12.5158 14.9271C13.7415 14.2119 14.7119 13.2413 15.4272 12.0157C16.1424 10.7899 16.5 9.45133 16.5 8.00002C16.5 6.54856 16.1424 5.20992 15.4273 3.9843ZM13.6876 8.45842L12.7396 9.40634C12.6078 9.53816 12.4514 9.60409 12.2709 9.60409C12.0904 9.60409 11.9342 9.53816 11.8022 9.40634L9.83366 7.43756V12.6666C9.83366 12.8472 9.76752 13.0035 9.63562 13.1354C9.5038 13.2674 9.34746 13.3334 9.1669 13.3334H7.83347C7.65294 13.3334 7.49667 13.2674 7.36474 13.1354C7.23278 13.0035 7.16677 12.8472 7.16677 12.6666V7.43756L5.19806 9.40634C5.07288 9.53131 4.91684 9.59362 4.72923 9.59362C4.54169 9.59362 4.38543 9.53131 4.26039 9.40634L3.31247 8.45842C3.18762 8.33331 3.12504 8.17697 3.12504 7.98951C3.12504 7.80208 3.1874 7.64585 3.31247 7.52078L7.08344 3.74992L8.03136 2.802C8.1564 2.67703 8.31267 2.61446 8.50009 2.61446C8.6877 2.61446 8.84389 2.67703 8.96889 2.802L9.91678 3.74992L13.6875 7.52078C13.8127 7.64582 13.8751 7.80208 13.8751 7.98951C13.8751 8.17697 13.8128 8.33331 13.6876 8.45842Z" fill="#EE2C41" fill-opacity="0.6"/>
</svg>
