<svg width="30" height="30" viewBox="0 0 30 30" fill="none" xmlns="http://www.w3.org/2000/svg">
<rect x="-0.25" y="0.25" width="29.5" height="29.5" rx="3.75" transform="matrix(-1 0 0 1 29.5 0)" fill="white" fill-opacity="0.2"/>
<path d="M26.25 3C26.6303 3.03635 27 3.36016 27 3.75L27 9.75C27 10.125 26.6398 10.5 26.25 10.5C25.8602 10.5 25.5 10.125 25.5 9.75L25.5 5.561L19.2234 11.8318C18.9288 12.0721 18.4943 12.0549 18.2197 11.7803C17.9268 11.4874 17.9268 11.0126 18.2197 10.7197L24.44 4.5L20.25 4.5C19.8697 4.46366 19.5 4.13985 19.5 3.75C19.5 3.33579 19.8358 3.00343 20.25 3.00343L26.25 3Z" fill="black"/>
<path d="M3.75 27C3.36967 26.9637 3 26.6398 3 26.25L3 20.25C3 19.875 3.36015 19.5 3.75 19.5C4.13985 19.5 4.5 19.875 4.5 20.25L4.5 24.439L10.7766 18.1682C11.0712 17.9279 11.5057 17.9451 11.7803 18.2197C12.0732 18.5126 12.0732 18.9874 11.7803 19.2803L5.56 25.5L9.75 25.5C10.1303 25.5363 10.5 25.8602 10.5 26.25C10.5 26.6642 10.1642 26.9966 9.75 26.9966L3.75 27Z" fill="black"/>
<rect x="-0.25" y="0.25" width="29.5" height="29.5" rx="3.75" transform="matrix(-1 0 0 1 29.5 0)" stroke="#D6D6D6" stroke-width="0.5"/>
</svg>
