<svg width="16" height="16" viewBox="0 0 16 16" fill="none" xmlns="http://www.w3.org/2000/svg">
<path d="M15.9419 10.5668C14.7689 13.8161 11.6765 16 8.21087 16C3.67889 16 0 12.3779 0 7.90345C0 4.12152 2.61255 0.872243 6.34476 0.019975C6.50471 -0.0332917 6.71798 0.019975 6.87793 0.179775C6.98457 0.339576 7.03788 0.552643 6.98457 0.712443C6.71798 1.45818 6.55803 2.25718 6.55803 3.05618C6.55803 6.94465 9.75707 10.0874 13.7025 10.0874C14.2357 10.0874 14.8222 10.0341 15.3554 9.87432C15.5153 9.82106 15.7286 9.87432 15.8886 10.0341C15.9952 10.1939 16.0485 10.407 15.9419 10.5668Z" fill="#6586B0"/>
</svg>
