<svg width="16" height="16" viewBox="0 0 16 16" fill="none" xmlns="http://www.w3.org/2000/svg">
<path d="M2.39055 0.341058L2.48306 0.426026L8 5.94255L13.5169 0.426026C14.085 -0.142009 15.0059 -0.142009 15.574 0.426026C16.1121 0.964165 16.1404 1.81906 15.6589 2.39055L15.574 2.48306L10.0575 8L15.574 13.5169C16.142 14.085 16.142 15.0059 15.574 15.574C15.0358 16.1121 14.1809 16.1404 13.6095 15.6589L13.5169 15.574L8 10.0575L2.48306 15.574C1.91503 16.142 0.994062 16.142 0.426026 15.574C-0.112112 15.0358 -0.140435 14.1809 0.341058 13.6095L0.426026 13.5169L5.94255 8L0.426026 2.48306C-0.142009 1.91503 -0.142009 0.994062 0.426026 0.426026C0.964165 -0.112112 1.81906 -0.140435 2.39055 0.341058Z" fill="#D6D6D6"/>
</svg>
