<svg width="16" height="16" viewBox="0 0 16 16" fill="none" xmlns="http://www.w3.org/2000/svg">
<g clip-path="url(#clip0)">
<path d="M8.14815 6.85604H12.2189C12.3037 6.85604 12.3734 6.8293 12.4277 6.77567C12.4823 6.7221 12.5096 6.65371 12.5096 6.5703V4.85605C12.5096 4.77265 12.4823 4.70425 12.4277 4.65068C12.3734 4.59718 12.3037 4.57031 12.2189 4.57031H8.14815C8.0633 4.57031 7.9937 4.59705 7.93915 4.65068C7.88473 4.70425 7.85742 4.77265 7.85742 4.85605V6.5703C7.85742 6.65371 7.88463 6.7221 7.93915 6.77567C7.9937 6.82921 8.0633 6.85604 8.14815 6.85604Z" fill="#D6D6D6"/>
<path d="M8.1501 2.2857H10.4762C10.561 2.2857 10.6307 2.25896 10.685 2.20539C10.7397 2.15179 10.7666 2.08339 10.7666 2.00002V0.285708C10.7666 0.202429 10.7397 0.133941 10.685 0.0803398C10.6307 0.0268633 10.561 0 10.4762 0H8.1501C8.06526 0 7.99565 0.0267382 7.9411 0.0803085C7.88671 0.133941 7.85938 0.202429 7.85938 0.285677V1.99999C7.85938 2.08336 7.88659 2.15176 7.9411 2.20536C7.99568 2.25883 8.06526 2.2857 8.1501 2.2857Z" fill="#D6D6D6"/>
<path d="M6.11319 12.5714H4.3686V0.285708C4.3686 0.202429 4.34142 0.133848 4.28687 0.0803398C4.23232 0.0268633 4.16272 0 4.07784 0H2.33322C2.24846 0 2.17867 0.0267382 2.12422 0.0803085C2.06983 0.133941 2.04249 0.202429 2.04249 0.285677V12.5713H0.297863C0.164704 12.5713 0.0738096 12.6308 0.0253072 12.7499C-0.0232271 12.8631 -0.00190386 12.9672 0.0888632 13.0625L2.9965 15.9197C3.06314 15.9731 3.13274 15.9998 3.2055 15.9998C3.28423 15.9998 3.35396 15.9731 3.4145 15.9197L6.31306 13.0714C6.37372 13.0002 6.40395 12.9285 6.40395 12.8574C6.40395 12.7737 6.37662 12.7054 6.32222 12.6515C6.26771 12.5981 6.1981 12.5714 6.11319 12.5714Z" fill="#D6D6D6"/>
<path d="M15.919 13.7953C15.8644 13.7416 15.7948 13.7148 15.71 13.7148H8.1501C8.06526 13.7148 7.99565 13.7416 7.9411 13.7953C7.88671 13.8488 7.85938 13.9173 7.85938 14.0006V15.7148C7.85938 15.7984 7.88659 15.8666 7.9411 15.9203C7.99568 15.9738 8.06526 16.0005 8.1501 16.0005H15.71C15.7948 16.0005 15.8644 15.9738 15.919 15.9203C15.9734 15.8665 16.0006 15.7984 16.0006 15.7148V14.0006C16.0007 13.9173 15.9734 13.8488 15.919 13.7953Z" fill="#D6D6D6"/>
<path d="M8.14815 11.428H13.9635C14.0483 11.428 14.118 11.4013 14.1726 11.3478C14.227 11.2943 14.2542 11.2258 14.2542 11.1425V9.42807C14.2542 9.34482 14.227 9.2763 14.1726 9.22282C14.118 9.16932 14.0483 9.14258 13.9635 9.14258H8.14815C8.0633 9.14258 7.9937 9.16932 7.93915 9.22282C7.88473 9.27633 7.85742 9.34482 7.85742 9.42807V11.1425C7.85742 11.2258 7.88463 11.2943 7.93915 11.3478C7.9937 11.4013 8.0633 11.428 8.14815 11.428Z" fill="#D6D6D6"/>
</g>
<defs>
<clipPath id="clip0">
<rect width="16" height="16" fill="white"/>
</clipPath>
</defs>
</svg>
